PathFileType	4	(X/Y/Z)	/Users/niels/Desktop/University/Third Semester/Perception and Action/Exam/Gymnastics Motion Tracking/Code for Gym Tracking/Analyzed Data/Webcam_Backflip/id1_6_trajectory_Sports2D/id1_6_trajectory_Sports2D_px_person00.trc
DataRate	CameraRate	NumFrames	NumMarkers	Units	OrigDataRate	OrigDataStartFrame	OrigNumFrames
29.714285714285715	29.714285714285715	11	22	m	29.714285714285715	0	105
Frame#	Time	Hip			RHip			RKnee			RAnkle			RBigToe			RSmallToe			RHeel			LHip			LKnee			LAnkle			LBigToe			LSmallToe			LHeel			Neck			Head			Nose			RShoulder			RElbow			RWrist			LShoulder			LElbow			LWrist		
		X1	Y1	Z1	X2	Y2	Z2	X3	Y3	Z3	X4	Y4	Z4	X5	Y5	Z5	X6	Y6	Z6	X7	Y7	Z7	X8	Y8	Z8	X9	Y9	Z9	X10	Y10	Z10	X11	Y11	Z11	X12	Y12	Z12	X13	Y13	Z13	X14	Y14	Z14	X15	Y15	Z15	X16	Y16	Z16	X17	Y17	Z17	X18	Y18	Z18	X19	Y19	Z19	X20	Y20	Z20	X21	Y21	Z21	X22	Y22	Z22
0	0.0	0.9951876723040026	-0.5878095249874394	0.0	0.9812633270431559	-0.5831586458597958	0.0	1.0617138136786908	-0.6914003194050796	0.0	1.0106372462847695	-0.8104463851207846	0.0	1.05854825382793	-0.8321373923741374	0.0	1.0446475035669451	-0.8383263517175046	0.0	0.9951857153396676	-0.8258982598411339	0.0	1.0137140737656467	-0.5847128130311634	0.0	1.0802762091687552	-0.6821264187903775	0.0	1.0245923446987681	-0.7872631531128362	0.0	1.064723772732033	-0.8197678021674389	0.0	1.0539136814008025	-0.8166894460724085	0.0	1.0122289361277148	-0.8057973796439636	0.0	1.066127091887428	-0.4333664661099847	0.0	1.1249037019009824	-0.36705325218789936	0.0	1.124857857625955	-0.40566735292101364	0.0	1.0491121120321776	-0.4410677166301367	0.0	0.9593436992857863	-0.43025163262698995	0.0	0.8727481550447765	-0.43644276525048614	0.0	1.0583340691628196	-0.4441753483341823	0.0	0.9840458604211463	-0.45340676990801376	0.0	0.9283713696695817	-0.48744505636454133	0.0
1	0.03365384615384615	0.9964347239123829	-0.6045353336571879	0.0	0.9823389860515211	-0.6012864541078461	0.0	1.0660685340090004	-0.7054630467581164	0.0	1.0118927127187238	-0.8221044665725028	0.0	1.0602357268934208	-0.8431625938997698	0.0	1.0464237646901586	-0.8490959599182407	0.0	0.9960961797839462	-0.8371069576711521	0.0	1.0143639795362416	-0.6015305764254445	0.0	1.0817751282819024	-0.6966634833564886	0.0	1.0256095704729307	-0.8019889504171438	0.0	1.0700998070448022	-0.8335356283509378	0.0	1.0599174051476927	-0.8293882137801224	0.0	1.0107414463698399	-0.8190404678561369	0.0	1.064564702779361	-0.44800350047983556	0.0	1.1165448971606138	-0.3795563595608441	0.0	1.1186094066074515	-0.41789135321507687	0.0	1.0440100836193063	-0.45913850646213145	0.0	0.9600187375745556	-0.4693149522064588	0.0	0.8840610825399818	-0.4949383893080009	0.0	1.0578749423468494	-0.461869847482734	0.0	0.9869988590355495	-0.48735033232000347	0.0	0.935526329586587	-0.5314988949553218	0.0
2	0.0673076923076923	0.9976062117186766	-0.6223808479905262	0.0	0.9836502493980472	-0.6206131357535234	0.0	1.068828784683316	-0.721503562707182	0.0	1.01278247019131	-0.8366031255051518	0.0	1.0618895316076677	-0.856776580499452	0.0	1.0480455716280197	-0.8625582500994838	0.0	0.996876146443116	-0.8510283370750994	0.0	1.0148945111876588	-0.6196403402641639	0.0	1.0821687037810495	-0.7134017690157864	0.0	1.0261864388325317	-0.8192929183649189	0.0	1.0745720565637407	-0.849222714206264	0.0	1.064867966598642	-0.8443586616272483	0.0	1.0085827530016436	-0.8347719686911028	0.0	1.0621362469798579	-0.46308706748683626	0.0	1.107072895250577	-0.3921621437819974	0.0	1.1115650155140409	-0.43035361505306147	0.0	1.0388522918073901	-0.47780208696337856	0.0	0.9637627238391149	-0.5087870930078586	0.0	0.9021224622131842	-0.5523276097139667	0.0	1.0568092723626732	-0.4799453443563833	0.0	0.9933860734481186	-0.520759976498863	0.0	0.9493717515120959	-0.5726643717804537	0.0
3	0.10096153846153846	0.9986752896036527	-0.6416925278582233	0.0	0.9853081610018136	-0.6415267797790775	0.0	1.068906608132532	-0.7405405859473951	0.0	1.0130521308676734	-0.8553133544590313	0.0	1.0632943863397522	-0.8741885770440845	0.0	1.049194657880727	-0.88002375714419	0.0	0.9973692168664262	-0.8689696980835139	0.0	1.0152895307734056	-0.6394542283597213	0.0	1.080803524908376	-0.7332749739678918	0.0	1.0261240167393413	-0.8402935450484362	0.0	1.0776432130761613	-0.8675298708252338	0.0	1.068099199350134	-0.8625110355002656	0.0	1.0055282978147855	-0.8540819606144721	0.0	1.0581165003682198	-0.4786061342731356	0.0	1.0954150347940557	-0.40469654181738723	0.0	1.1030125492086438	-0.44282411065121197	0.0	1.0335466342983777	-0.49697059456910037	0.0	0.9726883604182508	-0.5473666881135424	0.0	0.9312336947052661	-0.6048058294802706	0.0	1.05473452112075	-0.49821045845508233	0.0	1.005536358392174	-0.5519399302947291	0.0	0.9749589224102226	-0.6074585433067715	0.0
4	0.1346153846153846	0.9996109222792338	-0.6618402326112987	0.0	0.9871804157314708	-0.6633507289257042	0.0	1.0659680310365476	-0.7622245848949221	0.0	1.012636375453212	-0.8775704544467352	0.0	1.0641437803549658	-0.8947451689737445	0.0	1.0494676340396667	-0.9009155800811491	0.0	0.997425014978119	-0.890335962605734	0.0	1.0156800789150202	-0.6602526911019158	0.0	1.0776730407766668	-0.7555938900902498	0.0	1.0255760391781332	-0.8641933760477811	0.0	1.079322501353813	-0.8876019182035537	0.0	1.0694309239066968	-0.8829472478491879	0.0	1.0019843645630842	-0.8762285375215815	0.0	1.0522222105209946	-0.49391843045594525	0.0	1.080885077320883	-0.4166707785935189	0.0	1.0925529085187689	-0.4545917186434402	0.0	1.0281462233758885	-0.5157204385579663	0.0	0.9874014546276753	-0.5818071995311583	0.0	0.9717513321291766	-0.6460200034304678	0.0	1.0516448531905638	-0.5157231151126915	0.0	1.023711001361782	-0.5779335832315036	0.0	1.013229675359439	-0.6316601317479484	0.0
5	0.16826923076923075	1.0005569977814104	-0.6810685498817259	0.0	0.9891569249062444	-0.6841707452269823	0.0	1.0604483545729104	-0.7846024139781093	0.0	1.0116782182040196	-0.9008337097103517	0.0	1.064114632939054	-0.9162135860365205	0.0	1.0484655867469646	-0.9229561165794484	0.0	0.9969896927036105	-0.9128216382442188	0.0	1.016426887909157	-0.680100623019499	0.0	1.0733435369002922	-0.778175390887835	0.0	1.0249406959746807	-0.888530693999855	0.0	1.0797886228269382	-0.9074979872324976	0.0	1.0690460296218425	-0.9034385306629286	0.0	0.9988726226408273	-0.8989944473751593	0.0	1.0445832261549597	-0.5077032302971013	0.0	1.0631375044616433	-0.42735241920227085	0.0	1.0800075349383582	-0.464537886666488	0.0	1.0227064467313995	-0.5322426270544486	0.0	1.0064448640201555	-0.6072929235331498	0.0	1.0192281799426728	-0.6686790883539638	0.0	1.0477234124677406	-0.5307762624889779	0.0	1.045414939037956	-0.5950575136098779	0.0	1.058792629113078	-0.6406034245971588	0.0
6	0.20192307692307693	1.0020276978052172	-0.696646885184011	0.0	0.9915183503576084	-0.7010231637164835	0.0	1.0533465668835633	-0.8043744112816847	0.0	1.010475445291304	-0.921466157664252	0.0	1.0629280015389633	-0.9355124941032449	0.0	1.0459869496635996	-0.9428167246565455	0.0	0.9961878961804872	-0.9330740909963339	0.0	1.0180996822554473	-0.6961023939598103	0.0	1.06871645382257	-0.7978229794730235	0.0	1.0246242751431283	-0.9098897308624209	0.0	1.0790869719911622	-0.9249244343778262	0.0	1.0673425559561054	-0.9212788421979697	0.0	0.9972498574437821	-0.9193901410741753	0.0	1.035435790433554	-0.5181888254063028	0.0	1.0420331063491612	-0.43592046690810193	0.0	1.0652579741107113	-0.4713087443324818	0.0	1.0170192175984456	-0.5440995461836919	0.0	1.0263602375171794	-0.6186355261885604	0.0	1.065259470330486	-0.6668380538535736	0.0	1.0429249251110413	-0.5412029609221547	0.0	1.0658969654827555	-0.6000840220895435	0.0	1.1013344083921268	-0.6308727115672754	0.0
7	0.23557692307692307	1.0048194778516872	-0.7052963675580407	0.0	0.9949934889088691	-0.7103873800516711	0.0	1.0460407553269644	-0.8176832800182781	0.0	1.0094610745227022	-0.9356968693148786	0.0	1.060449752186191	-0.9495092259544612	0.0	1.0423781895828714	-0.9569460710101422	0.0	0.9953954602204178	-0.9474551906194448	0.0	1.0213008982665157	-0.7048809542754153	0.0	1.0649093709160609	-0.8109727432334914	0.0	1.024854043975045	-0.9247140821718391	0.0	1.0772072822328533	-0.9375847587679407	0.0	1.0648045207567565	-0.9338610205722407	0.0	0.9977819042515484	-0.9341657694832799	0.0	1.0248213297548625	-0.5235643281193353	0.0	1.0176533475768754	-0.4418001288911375	0.0	1.0481244144996662	-0.4737170049833068	0.0	1.010581873095319	-0.548796377243485	0.0	1.0425180894911767	-0.612025900124774	0.0	1.1000429370986937	-0.6384324892575886	0.0	1.0367373809381184	-0.5449412624031007	0.0	1.0800142098287329	-0.5916287776011574	0.0	1.1302826288431864	-0.602584593461998	0.0
8	0.2692307692307692	1.0097034974371935	-0.7039726346036462	0.0	1.000432595632002	-0.7090554850237043	0.0	1.040251373152861	-0.8211507369185566	0.0	1.0092147630620778	-0.9404408276158586	0.0	1.0567546229186786	-0.9557054113718176	0.0	1.0385371472639768	-0.9624811169364108	0.0	0.995236517207095	-0.9527980605704794	0.0	1.0264060143625153	-0.7033749683986616	0.0	1.0632257292428784	-0.8144804013381197	0.0	1.0257229061927982	-0.9300635065350364	0.0	1.0742821803505112	-0.9433495100326152	0.0	1.0619582222525445	-0.9390915120388813	0.0	1.000498208630983	-0.9403133397603151	0.0	1.0125633563741903	-0.5225890685448532	0.0	0.9904235603022182	-0.4451252124866462	0.0	1.0283886123211872	-0.47139366319481735	0.0	1.0027034398875352	-0.5446383106980328	0.0	1.0503342550359225	-0.5867993916491019	0.0	1.1157015650284583	-0.5871507957340136	0.0	1.0283436395218553	-0.54081723523282	0.0	1.0842274345972653	-0.5709445093976885	0.0	1.1391671066920777	-0.5602335936539828	0.0
9	0.30288461538461536	1.017164116551799	-0.6908387441670226	0.0	1.0083555196434735	-0.6951961898481299	0.0	1.037902219697963	-0.8127234273484023	0.0	1.0104036178637876	-0.9337773355971779	0.0	1.0521447770157333	-0.9525518592670817	0.0	1.0352588387775927	-0.9578422595990521	0.0	0.9964666567909568	-0.946962708164088	0.0	1.0334269729770014	-0.6898067918498535	0.0	1.0650250223221376	-0.8063742487643542	0.0	1.027535935698734	-0.9241264013815459	0.0	1.0706497047601469	-0.9405565046782262	0.0	1.059434307175672	-0.9357265919577317	0.0	1.005199357242397	-0.9356200270888978	0.0	0.9984680278380915	-0.5151862375358669	0.0	0.9611663901444406	-0.4470696459985995	0.0	1.0059510304954484	-0.4653509954226435	0.0	0.992572480955686	-0.5315584058268586	0.0	1.0465048203022311	-0.5463209458030741	0.0	1.1090860613272902	-0.5217846104073808	0.0	1.016985813634327	-0.5291644466201406	0.0	1.0773018204275855	-0.541429169684509	0.0	1.127148565756295	-0.5109834793738516	0.0
10	0.3365384615384615	1.0272902053524888	-0.6659379542969187	0.0	1.0187031390228225	-0.6690038175276889	0.0	1.0405722510880626	-0.7920692995674964	0.0	1.0137191212571721	-0.9150396586504779	0.0	1.0473992857224987	-0.9393245521047416	0.0	1.0330248946728817	-0.9426472860763919	0.0	0.999908665222741	-0.9289709631407259	0.0	1.0420995416195493	-0.6643162414494758	0.0	1.071383972683971	-0.7862920834894813	0.0	1.0311648227986159	-0.9063559973023909	0.0	1.0670077886886347	-0.9281889662545718	0.0	1.058038532636089	-0.9232753669887348	0.0	1.0121694279767937	-0.9189236655554168	0.0	0.9824833823011998	-0.5026268801527219	0.0	0.9312086781271871	-0.44972336373629823	0.0	0.9810959199049673	-0.4580596917627431	0.0	0.9795596282886436	-0.5114570595506006	0.0	1.03022468956207	-0.4973966784561788	0.0	1.0826566690568733	-0.45312247079049367	0.0	1.0021576036323858	-0.5118318396493398	0.0	1.059789780367587	-0.5073112424068527	0.0	1.097820499387936	-0.4617759321680355	0.0
